<mxfile host="Electron" agent="Mozilla/5.0 (Windows NT 10.0; Win64; x64) AppleWebKit/537.36 (KHTML, like Gecko) draw.io/28.1.2 Chrome/138.0.7204.243 Electron/37.4.0 Safari/537.36" version="28.1.2">
  <diagram name="PÃ¡gina-1" id="2b0sj4fKUlM-kD5dIDbn">
    <mxGraphModel dx="1834" dy="1773" grid="1" gridSize="10" guides="1" tooltips="1" connect="1" arrows="1" fold="1" page="1" pageScale="1" pageWidth="827" pageHeight="1169" math="0" shadow="0">
      <root>
        <mxCell id="0" />
        <mxCell id="1" parent="0" />
        <mxCell id="d3tArJafR_7GQ0fIo8Qs-132" value="" style="rounded=1;whiteSpace=wrap;html=1;strokeWidth=6;glass=0;shadow=1;fillColor=#FFFFFF;strokeColor=light-dark(#000000,#9DB395);fontColor=#ffffff;gradientColor=none;fillStyle=solid;" vertex="1" parent="1">
          <mxGeometry x="-20" y="-30" width="860" height="760" as="geometry" />
        </mxCell>
        <mxCell id="d3tArJafR_7GQ0fIo8Qs-140" value="" style="rounded=1;whiteSpace=wrap;html=1;fillColor=none;dashed=1;dashPattern=8 8;" vertex="1" parent="1">
          <mxGeometry x="150" y="410" width="620" height="270" as="geometry" />
        </mxCell>
        <mxCell id="d3tArJafR_7GQ0fIo8Qs-130" value="" style="ellipse;whiteSpace=wrap;html=1;aspect=fixed;fillColor=default;gradientColor=default;" vertex="1" parent="1">
          <mxGeometry x="477.5" y="277.5" width="85" height="85" as="geometry" />
        </mxCell>
        <mxCell id="d3tArJafR_7GQ0fIo8Qs-127" value="" style="ellipse;whiteSpace=wrap;html=1;aspect=fixed;fillColor=default;gradientColor=default;" vertex="1" parent="1">
          <mxGeometry x="237.5" y="280" width="85" height="85" as="geometry" />
        </mxCell>
        <mxCell id="d3tArJafR_7GQ0fIo8Qs-125" value="" style="rounded=1;whiteSpace=wrap;html=1;gradientDirection=south;fillColor=#6d8764;fontColor=#ffffff;strokeColor=#3A5431;gradientColor=#FFFFFF;" vertex="1" parent="1">
          <mxGeometry x="370" y="155" width="60" height="60" as="geometry" />
        </mxCell>
        <mxCell id="d3tArJafR_7GQ0fIo8Qs-124" value="" style="ellipse;whiteSpace=wrap;html=1;aspect=fixed;fillColor=default;gradientColor=default;" vertex="1" parent="1">
          <mxGeometry x="360" y="10" width="90" height="90" as="geometry" />
        </mxCell>
        <mxCell id="d3tArJafR_7GQ0fIo8Qs-70" style="edgeStyle=orthogonalEdgeStyle;rounded=0;orthogonalLoop=1;jettySize=auto;html=1;exitX=0.5;exitY=1;exitDx=0;exitDy=0;" edge="1" parent="1">
          <mxGeometry relative="1" as="geometry">
            <mxPoint x="325" y="580" as="sourcePoint" />
            <mxPoint x="325" y="580" as="targetPoint" />
          </mxGeometry>
        </mxCell>
        <mxCell id="d3tArJafR_7GQ0fIo8Qs-74" style="edgeStyle=orthogonalEdgeStyle;rounded=0;orthogonalLoop=1;jettySize=auto;html=1;" edge="1" parent="1" source="d3tArJafR_7GQ0fIo8Qs-73">
          <mxGeometry relative="1" as="geometry">
            <mxPoint x="400" y="150" as="targetPoint" />
          </mxGeometry>
        </mxCell>
        <mxCell id="d3tArJafR_7GQ0fIo8Qs-73" value="&lt;font style=&quot;font-size: 18px;&quot;&gt;&lt;b style=&quot;&quot;&gt;CEO&lt;/b&gt;&lt;/font&gt;" style="image;html=1;image=img/lib/clip_art/people/Suit_Man_128x128.png" vertex="1" parent="1">
          <mxGeometry x="365" y="15" width="80" height="80" as="geometry" />
        </mxCell>
        <mxCell id="d3tArJafR_7GQ0fIo8Qs-129" style="edgeStyle=orthogonalEdgeStyle;rounded=0;orthogonalLoop=1;jettySize=auto;html=1;" edge="1" parent="1">
          <mxGeometry relative="1" as="geometry">
            <mxPoint x="280" y="270" as="targetPoint" />
            <mxPoint x="370" y="185" as="sourcePoint" />
          </mxGeometry>
        </mxCell>
        <mxCell id="d3tArJafR_7GQ0fIo8Qs-131" style="edgeStyle=orthogonalEdgeStyle;rounded=0;orthogonalLoop=1;jettySize=auto;html=1;" edge="1" parent="1">
          <mxGeometry relative="1" as="geometry">
            <mxPoint x="520" y="270" as="targetPoint" />
            <mxPoint x="430" y="185" as="sourcePoint" />
          </mxGeometry>
        </mxCell>
        <mxCell id="d3tArJafR_7GQ0fIo8Qs-75" value="&lt;font style=&quot;font-size: 18px;&quot;&gt;&lt;b&gt;IAM&lt;/b&gt;&lt;/font&gt;" style="outlineConnect=0;dashed=0;verticalLabelPosition=bottom;verticalAlign=top;align=center;html=1;shape=mxgraph.aws3.iam;fillColor=#759C3E;gradientColor=none;" vertex="1" parent="1">
          <mxGeometry x="380" y="160" width="40" height="50" as="geometry" />
        </mxCell>
        <mxCell id="d3tArJafR_7GQ0fIo8Qs-79" value="&lt;font style=&quot;font-size: 14px;&quot;&gt;Administrators&lt;/font&gt;" style="image;html=1;image=img/lib/clip_art/people/Suit_Woman_Green_Black_128x128.png" vertex="1" parent="1">
          <mxGeometry x="240" y="282.5" width="80" height="80" as="geometry" />
        </mxCell>
        <mxCell id="d3tArJafR_7GQ0fIo8Qs-80" value="&lt;font style=&quot;font-size: 14px;&quot;&gt;Employees&lt;/font&gt;" style="image;html=1;image=img/lib/clip_art/people/Suit_Man_Green_Black_128x128.png" vertex="1" parent="1">
          <mxGeometry x="480" y="282.5" width="80" height="80" as="geometry" />
        </mxCell>
        <mxCell id="d3tArJafR_7GQ0fIo8Qs-90" value="&lt;b&gt;&lt;font style=&quot;font-size: 18px;&quot;&gt;EC2&lt;/font&gt;&lt;/b&gt;" style="outlineConnect=0;dashed=0;verticalLabelPosition=bottom;verticalAlign=top;align=center;html=1;shape=mxgraph.aws3.ec2;fillColor=#F58534;gradientColor=none;" vertex="1" parent="1">
          <mxGeometry x="180" y="430" width="60" height="70" as="geometry" />
        </mxCell>
        <mxCell id="d3tArJafR_7GQ0fIo8Qs-93" value="&lt;div&gt;&lt;br&gt;&lt;/div&gt;&lt;div&gt;&lt;br&gt;&lt;/div&gt;&lt;div&gt;&lt;b&gt;&lt;font style=&quot;color: rgb(0, 0, 0); font-size: 18px;&quot;&gt;&lt;br&gt;&lt;/font&gt;&lt;/b&gt;&lt;/div&gt;&lt;div&gt;&lt;b&gt;&lt;font style=&quot;color: rgb(0, 0, 0); font-size: 18px;&quot;&gt;&lt;br&gt;&lt;/font&gt;&lt;/b&gt;&lt;/div&gt;&lt;div&gt;&lt;b style=&quot;background-color: transparent; color: light-dark(rgb(255, 255, 255), rgb(18, 18, 18));&quot;&gt;&lt;font style=&quot;color: rgb(0, 0, 0); font-size: 18px;&quot;&gt;NoSQL&lt;/font&gt;&lt;/b&gt;&lt;/div&gt;" style="shape=cylinder3;whiteSpace=wrap;html=1;boundedLbl=1;backgroundOutline=1;size=15;fillColor=#0050ef;strokeColor=light-dark(#fafafa, #b2cbff);fontColor=#ffffff;" vertex="1" parent="1">
          <mxGeometry x="710" y="440" width="40" height="60" as="geometry" />
        </mxCell>
        <mxCell id="d3tArJafR_7GQ0fIo8Qs-94" value="&lt;font style=&quot;font-size: 14px;&quot;&gt;&lt;b style=&quot;&quot;&gt;EBS&lt;/b&gt;&lt;/font&gt;" style="shape=cylinder3;whiteSpace=wrap;html=1;boundedLbl=1;backgroundOutline=1;size=15;fillColor=#0050ef;strokeColor=light-dark(#fafafa, #b2cbff);fontColor=#ffffff;" vertex="1" parent="1">
          <mxGeometry x="180" y="570" width="60" height="60" as="geometry" />
        </mxCell>
        <mxCell id="d3tArJafR_7GQ0fIo8Qs-96" value="&lt;b&gt;&lt;font style=&quot;font-size: 14px;&quot;&gt;Lambda&lt;/font&gt;&lt;/b&gt;" style="sketch=0;outlineConnect=0;fontColor=#232F3E;gradientColor=none;fillColor=#ED7100;strokeColor=none;dashed=0;verticalLabelPosition=bottom;verticalAlign=top;align=center;html=1;fontSize=12;fontStyle=0;aspect=fixed;pointerEvents=1;shape=mxgraph.aws4.lambda_function;" vertex="1" parent="1">
          <mxGeometry x="493" y="573" width="54" height="54" as="geometry" />
        </mxCell>
        <mxCell id="d3tArJafR_7GQ0fIo8Qs-97" value="&lt;b&gt;&lt;font style=&quot;font-size: 18px; color: rgb(0, 0, 0);&quot;&gt;SNS&lt;/font&gt;&lt;/b&gt;" style="outlineConnect=0;dashed=0;verticalLabelPosition=bottom;verticalAlign=top;align=center;html=1;shape=mxgraph.aws3.sns;fillColor=#e51400;fontColor=#ffffff;strokeColor=#B20000;" vertex="1" parent="1">
          <mxGeometry x="620" y="550.5" width="76.5" height="76.5" as="geometry" />
        </mxCell>
        <mxCell id="d3tArJafR_7GQ0fIo8Qs-99" value="&lt;font style=&quot;font-size: 14px;&quot;&gt;invokes&lt;/font&gt;" style="text;html=1;align=center;verticalAlign=middle;resizable=0;points=[];autosize=1;strokeColor=none;fillColor=none;strokeWidth=1;" vertex="1" parent="1">
          <mxGeometry x="562.5" y="465" width="70" height="30" as="geometry" />
        </mxCell>
        <mxCell id="d3tArJafR_7GQ0fIo8Qs-137" value="" style="edgeStyle=orthogonalEdgeStyle;rounded=0;orthogonalLoop=1;jettySize=auto;html=1;" edge="1" parent="1" source="d3tArJafR_7GQ0fIo8Qs-103" target="d3tArJafR_7GQ0fIo8Qs-96">
          <mxGeometry relative="1" as="geometry" />
        </mxCell>
        <mxCell id="d3tArJafR_7GQ0fIo8Qs-103" value="&lt;font style=&quot;font-size: 14px;&quot;&gt;&lt;b&gt;logs&lt;/b&gt;&lt;/font&gt;" style="text;html=1;align=center;verticalAlign=middle;resizable=0;points=[];autosize=1;strokeColor=none;fillColor=none;" vertex="1" parent="1">
          <mxGeometry x="350" y="585" width="50" height="30" as="geometry" />
        </mxCell>
        <mxCell id="d3tArJafR_7GQ0fIo8Qs-108" value="" style="endArrow=none;html=1;rounded=0;" edge="1" parent="1">
          <mxGeometry width="50" height="50" relative="1" as="geometry">
            <mxPoint x="279.41" y="600" as="sourcePoint" />
            <mxPoint x="279" y="390" as="targetPoint" />
            <Array as="points">
              <mxPoint x="279.41" y="520" />
            </Array>
          </mxGeometry>
        </mxCell>
        <mxCell id="d3tArJafR_7GQ0fIo8Qs-109" value="" style="endArrow=none;html=1;rounded=0;" edge="1" parent="1">
          <mxGeometry width="50" height="50" relative="1" as="geometry">
            <mxPoint x="350" y="480" as="sourcePoint" />
            <mxPoint x="280" y="480" as="targetPoint" />
          </mxGeometry>
        </mxCell>
        <mxCell id="d3tArJafR_7GQ0fIo8Qs-110" value="" style="endArrow=none;html=1;rounded=0;" edge="1" parent="1">
          <mxGeometry width="50" height="50" relative="1" as="geometry">
            <mxPoint x="570" y="480" as="sourcePoint" />
            <mxPoint x="420" y="480" as="targetPoint" />
          </mxGeometry>
        </mxCell>
        <mxCell id="d3tArJafR_7GQ0fIo8Qs-114" value="" style="endArrow=none;html=1;rounded=0;exitX=0.048;exitY=0.518;exitDx=0;exitDy=0;exitPerimeter=0;" edge="1" parent="1">
          <mxGeometry width="50" height="50" relative="1" as="geometry">
            <mxPoint x="350.0000000000001" y="599.41" as="sourcePoint" />
            <mxPoint x="247.6" y="599.87" as="targetPoint" />
          </mxGeometry>
        </mxCell>
        <mxCell id="d3tArJafR_7GQ0fIo8Qs-116" value="" style="endArrow=none;html=1;rounded=0;" edge="1" parent="1">
          <mxGeometry width="50" height="50" relative="1" as="geometry">
            <mxPoint x="547" y="599.41" as="sourcePoint" />
            <mxPoint x="607" y="599.41" as="targetPoint" />
          </mxGeometry>
        </mxCell>
        <mxCell id="d3tArJafR_7GQ0fIo8Qs-119" value="" style="endArrow=classic;html=1;rounded=0;entryX=0;entryY=0;entryDx=0;entryDy=37.5;entryPerimeter=0;exitX=0.974;exitY=0.498;exitDx=0;exitDy=0;exitPerimeter=0;" edge="1" parent="1" source="d3tArJafR_7GQ0fIo8Qs-99" target="d3tArJafR_7GQ0fIo8Qs-93">
          <mxGeometry width="50" height="50" relative="1" as="geometry">
            <mxPoint x="410" y="410" as="sourcePoint" />
            <mxPoint x="460" y="360" as="targetPoint" />
          </mxGeometry>
        </mxCell>
        <mxCell id="d3tArJafR_7GQ0fIo8Qs-123" value="&lt;b&gt;&lt;font style=&quot;font-size: 18px;&quot;&gt;Security&lt;/font&gt;&lt;/b&gt;&lt;div&gt;&lt;b&gt;&lt;font style=&quot;font-size: 18px;&quot;&gt;Group&lt;/font&gt;&lt;/b&gt;&lt;/div&gt;" style="fillColor=#008000;aspect=fixed;sketch=0;pointerEvents=1;shadow=0;dashed=0;html=1;strokeColor=none;labelPosition=center;verticalLabelPosition=bottom;outlineConnect=0;verticalAlign=top;align=center;shape=mxgraph.openstack.neutron_securitygroup;" vertex="1" parent="1">
          <mxGeometry x="50" y="450" width="70" height="70" as="geometry" />
        </mxCell>
        <mxCell id="d3tArJafR_7GQ0fIo8Qs-138" value="" style="endArrow=none;html=1;rounded=0;" edge="1" parent="1" source="d3tArJafR_7GQ0fIo8Qs-96">
          <mxGeometry width="50" height="50" relative="1" as="geometry">
            <mxPoint x="519" y="560" as="sourcePoint" />
            <mxPoint x="519.41" y="390" as="targetPoint" />
            <Array as="points">
              <mxPoint x="519.82" y="520" />
            </Array>
          </mxGeometry>
        </mxCell>
        <mxCell id="d3tArJafR_7GQ0fIo8Qs-92" value="&lt;b&gt;&lt;font style=&quot;font-size: 18px;&quot;&gt;CloudFront&lt;/font&gt;&lt;/b&gt;" style="sketch=0;points=[[0,0,0],[0.25,0,0],[0.5,0,0],[0.75,0,0],[1,0,0],[0,1,0],[0.25,1,0],[0.5,1,0],[0.75,1,0],[1,1,0],[0,0.25,0],[0,0.5,0],[0,0.75,0],[1,0.25,0],[1,0.5,0],[1,0.75,0]];outlineConnect=0;fontColor=#232F3E;fillColor=#8C4FFF;strokeColor=#ffffff;dashed=0;verticalLabelPosition=bottom;verticalAlign=top;align=center;html=1;fontSize=12;fontStyle=0;aspect=fixed;shape=mxgraph.aws4.resourceIcon;resIcon=mxgraph.aws4.cloudfront;" vertex="1" parent="1">
          <mxGeometry x="350" y="450" width="70" height="70" as="geometry" />
        </mxCell>
      </root>
    </mxGraphModel>
  </diagram>
</mxfile>
